<?xml version="1.0" standalone="no"?>
<!DOCTYPE svg PUBLIC "-//W3C//DTD SVG 20010904//EN"
 "http://www.w3.org/TR/2001/REC-SVG-20010904/DTD/svg10.dtd">
<svg version="1.0" xmlns="http://www.w3.org/2000/svg"
 width="200.000000pt" height="200.000000pt" viewBox="0 0 200.000000 200.000000"
 preserveAspectRatio="xMidYMid meet">

<g transform="translate(0.000000,200.000000) scale(0.100000,-0.100000)"
fill="#000000" stroke="none">
<path d="M935 1540 c-73 -15 -154 -51 -212 -94 -74 -55 -103 -87 -148 -161
-130 -216 -96 -488 84 -665 138 -137 322 -189 510 -145 126 30 261 126 331
235 86 133 109 321 58 466 -91 261 -359 417 -623 364z m319 -98 c250 -124 346
-415 220 -664 -32 -62 -110 -147 -173 -187 -155 -99 -368 -98 -525 3 -133 85
-226 254 -226 411 0 211 152 411 360 471 28 9 85 12 152 10 103 -2 111 -4 192
-44z"/>
<path d="M737 1273 c-16 -15 -5 -40 35 -80 l42 -43 -42 -43 c-44 -45 -53 -73
-26 -84 10 -4 32 10 63 41 l47 46 44 -45 c46 -46 76 -57 87 -29 4 10 -11 32
-43 65 l-48 49 48 49 c32 33 47 55 43 65 -11 28 -41 17 -87 -29 l-44 -45 -46
45 c-45 44 -60 52 -73 38z"/>
<path d="M1093 1264 c-4 -10 11 -32 43 -65 l48 -49 -47 -48 c-33 -34 -46 -54
-41 -65 10 -28 38 -19 84 28 l44 45 47 -46 c31 -31 53 -45 63 -41 27 11 18 39
-26 84 l-42 43 42 43 c44 45 53 73 26 84 -10 4 -32 -10 -63 -41 l-47 -46 -44
45 c-46 46 -76 57 -87 29z"/>
<path d="M960 860 c-99 -21 -220 -93 -220 -131 0 -33 26 -32 73 4 70 53 129
72 227 72 98 0 157 -19 227 -72 48 -37 76 -37 71 -1 -4 29 -82 84 -154 109
-67 24 -162 32 -224 19z"/>
</g>
</svg>
