<svg width="6" height="7" viewBox="0 0 6 7" fill="none" xmlns="http://www.w3.org/2000/svg">
<path d="M0.351562 3.41211V3.30957C0.351562 2.9222 0.406901 2.56576 0.517578 2.24023C0.628255 1.91146 0.789388 1.62663 1.00098 1.38574C1.21257 1.14486 1.47135 0.957682 1.77734 0.824219C2.08333 0.6875 2.43164 0.619141 2.82227 0.619141C3.2194 0.619141 3.57096 0.6875 3.87695 0.824219C4.1862 0.957682 4.44661 1.14486 4.6582 1.38574C4.86979 1.62663 5.03092 1.91146 5.1416 2.24023C5.25228 2.56576 5.30762 2.9222 5.30762 3.30957V3.41211C5.30762 3.79622 5.25228 4.15267 5.1416 4.48145C5.03092 4.80697 4.86979 5.0918 4.6582 5.33594C4.44661 5.57682 4.18783 5.764 3.88184 5.89746C3.57585 6.03092 3.22591 6.09766 2.83203 6.09766C2.44141 6.09766 2.09147 6.03092 1.78223 5.89746C1.47298 5.764 1.21257 5.57682 1.00098 5.33594C0.789388 5.0918 0.628255 4.80697 0.517578 4.48145C0.406901 4.15267 0.351562 3.79622 0.351562 3.41211ZM1.64062 3.30957V3.41211C1.64062 3.64323 1.66341 3.8597 1.70898 4.06152C1.75456 4.26335 1.82454 4.44076 1.91895 4.59375C2.01335 4.74674 2.13542 4.86719 2.28516 4.95508C2.43815 5.03971 2.62044 5.08203 2.83203 5.08203C3.04036 5.08203 3.2194 5.03971 3.36914 4.95508C3.51888 4.86719 3.64095 4.74674 3.73535 4.59375C3.83301 4.44076 3.90462 4.26335 3.9502 4.06152C3.99577 3.8597 4.01855 3.64323 4.01855 3.41211V3.30957C4.01855 3.08171 3.99577 2.86849 3.9502 2.66992C3.90462 2.4681 3.83301 2.29069 3.73535 2.1377C3.64095 1.98145 3.51725 1.85938 3.36426 1.77148C3.21452 1.68034 3.03385 1.63477 2.82227 1.63477C2.61393 1.63477 2.4349 1.68034 2.28516 1.77148C2.13542 1.85938 2.01335 1.98145 1.91895 2.1377C1.82454 2.29069 1.75456 2.4681 1.70898 2.66992C1.66341 2.86849 1.64062 3.08171 1.64062 3.30957Z" fill="#7E7E7E"/>
</svg>
