<svg width="16" height="16" viewBox="0 0 16 16" fill="none" xmlns="http://www.w3.org/2000/svg">
<path d="M8 0C3.592 0 0 3.592 0 8C0 12.408 3.592 16 8 16C12.408 16 16 12.408 16 8C16 3.592 12.408 0 8 0ZM11.48 10.856C11.368 11.048 11.168 11.152 10.96 11.152C10.856 11.152 10.752 11.128 10.656 11.064L8.176 9.584C7.56 9.216 7.104 8.408 7.104 7.696V4.416C7.104 4.088 7.376 3.816 7.704 3.816C8.032 3.816 8.304 4.088 8.304 4.416V7.696C8.304 7.984 8.544 8.408 8.792 8.552L11.272 10.032C11.56 10.2 11.656 10.568 11.48 10.856Z" fill="#3F3F3F"/>
</svg>
