<svg width="18" height="15" viewBox="0 0 18 15" fill="none" xmlns="http://www.w3.org/2000/svg">
<path d="M17.7628 8.21342C17.5289 7.43956 17.1419 6.76468 16.629 6.21578C15.9721 5.46889 15.0993 4.95599 14.1185 4.73103C13.6236 2.48143 12.2378 0.861716 10.2672 0.258824C8.12555 -0.407057 5.64199 0.240827 4.08527 1.86954C2.71751 3.30028 2.2676 5.27093 2.7985 7.36757C0.998822 7.80849 0.107981 9.31122 0.00899838 10.742C-8.38041e-09 10.841 0 10.9309 0 11.0209C0 12.7126 1.1068 14.6113 3.57236 14.7912H12.9127C14.1905 14.7912 15.4142 14.3143 16.3501 13.4595C17.8168 12.1727 18.3567 10.1661 17.7628 8.21342Z" fill="#3F3F3F"/>
</svg>
