<svg width="40" height="40" viewBox="0 0 40 40" fill="none" xmlns="http://www.w3.org/2000/svg">
<path d="M20 38C29.941 38 38 29.941 38 20C38 10.0589 29.941 2 20 2C10.0589 2 2 10.0589 2 20C2 29.941 10.0589 38 20 38Z" stroke="white" stroke-width="3" stroke-linecap="round" stroke-linejoin="round"/>
<path d="M2.89999 20.9L12.8 24.5L11 30.8L12.8 36.2" stroke="white" stroke-width="3" stroke-linecap="round" stroke-linejoin="round"/>
<path d="M29 35.3L28.1 30.8L23.6 29V22.7L29 20.9L37.1 21.8" stroke="white" stroke-width="3" stroke-linecap="round" stroke-linejoin="round"/>
<path d="M32.6 8.3L31.7 11L25.4 11.9V17.3L29.9 15.5H33.5L37.1 17.3" stroke="white" stroke-width="3" stroke-linecap="round" stroke-linejoin="round"/>
<path d="M2.89999 18.2L8.04285 14.36L13.1857 13.4L17.3 7.64L15.2429 3.8" stroke="white" stroke-width="3" stroke-linecap="round" stroke-linejoin="round"/>
</svg>
