<svg width="24" height="22" viewBox="0 0 24 22" fill="none" xmlns="http://www.w3.org/2000/svg">
<path d="M12 21.5442C11.654 21.5442 11.3191 21.4995 11.04 21.3991C6.77581 19.9367 0 14.746 0 7.07721C0 3.17023 3.15907 0 7.04372 0C8.93023 0 10.694 0.736744 12 2.05395C13.306 0.736744 15.0698 0 16.9563 0C20.8409 0 24 3.18139 24 7.07721C24 14.7572 17.2242 19.9367 12.96 21.3991C12.6809 21.4995 12.346 21.5442 12 21.5442ZM7.04372 1.67442C4.08558 1.67442 1.67442 4.09674 1.67442 7.07721C1.67442 14.7014 9.00837 18.9433 11.587 19.8251C11.7879 19.8921 12.2233 19.8921 12.4242 19.8251C14.9916 18.9433 22.3367 14.7126 22.3367 7.07721C22.3367 4.09674 19.9256 1.67442 16.9674 1.67442C15.2707 1.67442 13.6967 2.46698 12.6809 3.84C12.3684 4.26419 11.654 4.26419 11.3414 3.84C10.3033 2.45581 8.74047 1.67442 7.04372 1.67442Z" fill="#848282"/>
<path d="M19 8.5C19 7 18 5.5 17 5" stroke="#848282" stroke-linecap="round" stroke-linejoin="round"/>
</svg>
