<svg width="22" height="20" viewBox="0 0 22 20" fill="none" xmlns="http://www.w3.org/2000/svg">
<path d="M11 19.7488C10.6828 19.7488 10.3758 19.7079 10.12 19.6158C6.21116 18.2753 0 13.5172 0 6.48744C0 2.90605 2.89581 0 6.45674 0C8.18605 0 9.80279 0.675349 11 1.88279C12.1972 0.675349 13.814 0 15.5433 0C19.1042 0 22 2.91628 22 6.48744C22 13.5274 15.7888 18.2753 11.88 19.6158C11.6242 19.7079 11.3172 19.7488 11 19.7488ZM6.45674 1.53488C3.74512 1.53488 1.53488 3.75535 1.53488 6.48744C1.53488 13.4763 8.25767 17.3646 10.6214 18.173C10.8056 18.2344 11.2047 18.2344 11.3888 18.173C13.7423 17.3646 20.4753 13.4865 20.4753 6.48744C20.4753 3.75535 18.2651 1.53488 15.5535 1.53488C13.9981 1.53488 12.5553 2.2614 11.6242 3.52C11.3377 3.90884 10.6828 3.90884 10.3963 3.52C9.44465 2.25116 8.01209 1.53488 6.45674 1.53488Z" fill="white"/>
</svg>
