<svg width="23" height="23" viewBox="0 0 23 23" fill="none" xmlns="http://www.w3.org/2000/svg">
<path d="M13.8325 1.31449L13.8327 1.31468L20.45 5.94449C20.4501 5.94451 20.4501 5.94454 20.4501 5.94456C21.0012 6.33033 21.5188 6.95932 21.899 7.68772C22.2793 8.41615 22.5 9.2013 22.5 9.87748V17.6667C22.5 20.3201 20.3457 22.4744 17.6923 22.4744H5.3077C2.65567 22.4744 0.5 20.3101 0.5 17.6552V9.72813C0.5 9.09995 0.699784 8.35445 1.04598 7.65134C1.39204 6.9485 1.86309 6.3313 2.36396 5.94061L2.36407 5.94053L8.11845 1.44958C8.11869 1.4494 8.11893 1.44921 8.11917 1.44902C9.68074 0.239627 12.2085 0.176685 13.8325 1.31449ZM11.5 19.7406C12.2472 19.7406 12.8616 19.1262 12.8616 18.379V14.9324C12.8616 14.1853 12.2472 13.5708 11.5 13.5708C10.7528 13.5708 10.1383 14.1853 10.1383 14.9324V18.379C10.1383 19.1262 10.7528 19.7406 11.5 19.7406Z" stroke="#848282"/>
</svg>
