<?xml version="1.0" standalone="no"?>
<!DOCTYPE svg PUBLIC "-//W3C//DTD SVG 20010904//EN"
 "http://www.w3.org/TR/2001/REC-SVG-20010904/DTD/svg10.dtd">
<svg version="1.0" xmlns="http://www.w3.org/2000/svg"
 width="728.000000pt" height="515.000000pt" viewBox="0 0 728.000000 515.000000"
 preserveAspectRatio="xMidYMid meet">

<g transform="translate(0.000000,515.000000) scale(0.100000,-0.100000)"
fill="white" stroke="none">
<path d="M3040 5143 c-1181 -209 -2042 -741 -2541 -1570 -244 -407 -409 -912
-476 -1455 -23 -195 -24 -527 0 -658 75 -411 223 -706 487 -970 226 -225 486
-376 791 -457 104 -28 105 -28 429 -28 l325 0 116 31 c309 84 562 229 779 446
155 156 274 331 370 547 106 237 130 361 130 681 0 317 -26 460 -126 680 -97
215 -191 354 -349 519 -289 300 -633 476 -1030 526 -139 17 -165 23 -165 39 1
21 99 196 157 278 89 128 355 398 524 534 168 135 435 305 782 499 172 95 202
121 215 181 11 53 2 96 -31 145 l-23 34 -169 1 c-94 1 -181 0 -195 -3z"/>
<path d="M6680 5110 c-422 -88 -746 -198 -1079 -365 -302 -151 -522 -302 -756
-518 -548 -507 -872 -1156 -995 -1992 -21 -142 -40 -424 -34 -499 1 -23 5 -84
8 -137 33 -544 311 -1026 769 -1332 179 -120 353 -195 559 -241 109 -25 131
-26 392 -26 313 0 351 5 556 73 271 89 487 230 702 456 333 351 481 755 465
1266 -8 258 -56 444 -174 679 -91 181 -188 319 -326 457 -289 293 -618 454
-1026 504 -69 8 -128 20 -132 27 -11 18 16 93 61 169 137 230 382 490 655 695
177 133 449 308 620 399 236 126 319 188 330 248 9 47 -12 115 -45 149 l-28
28 -169 -1 c-156 0 -182 -3 -353 -39z"/>
</g>
</svg>
