<svg width="22" height="22" viewBox="0 0 22 22" fill="none" xmlns="http://www.w3.org/2000/svg">
<g clip-path="url(#clip0_1_49)">
<path d="M11.0001 5.5C10.2749 5.5 9.56599 5.71505 8.96301 6.11794C8.36003 6.52084 7.89007 7.0935 7.61255 7.76349C7.33502 8.43349 7.26241 9.17073 7.40389 9.882C7.54537 10.5933 7.89459 11.2466 8.40738 11.7594C8.92017 12.2722 9.57351 12.6214 10.2848 12.7629C10.996 12.9044 11.7333 12.8317 12.4033 12.5542C13.0733 12.2767 13.6459 11.8067 14.0488 11.2038C14.4517 10.6008 14.6668 9.89186 14.6668 9.16667C14.6668 8.19421 14.2805 7.26157 13.5928 6.57394C12.9052 5.88631 11.9726 5.5 11.0001 5.5ZM11.0001 11C10.6375 11 10.283 10.8925 9.98156 10.691C9.68007 10.4896 9.44509 10.2033 9.30632 9.86825C9.16756 9.53325 9.13126 9.16463 9.202 8.809C9.27274 8.45337 9.44735 8.1267 9.70374 7.8703C9.96014 7.61391 10.2868 7.4393 10.6424 7.36856C10.9981 7.29782 11.3667 7.33413 11.7017 7.47289C12.0367 7.61165 12.323 7.84663 12.5245 8.14812C12.7259 8.44961 12.8334 8.80407 12.8334 9.16667C12.8334 9.6529 12.6403 10.1192 12.2965 10.463C11.9526 10.8068 11.4863 11 11.0001 11Z" fill="#CAC8C8"/>
<path d="M10.9999 22.0003C10.228 22.0042 9.46644 21.8232 8.7789 21.4723C8.09136 21.1214 7.49788 20.611 7.04817 19.9836C3.55475 15.1647 1.78284 11.542 1.78284 9.21551C1.78284 6.77099 2.75392 4.42658 4.48246 2.69805C6.211 0.969507 8.5554 -0.00157547 10.9999 -0.00157547C13.4444 -0.00157547 15.7888 0.969507 17.5174 2.69805C19.2459 4.42658 20.217 6.77099 20.217 9.21551C20.217 11.542 18.4451 15.1647 14.9517 19.9836C14.502 20.611 13.9085 21.1214 13.2209 21.4723C12.5334 21.8232 11.7718 22.0042 10.9999 22.0003V22.0003ZM10.9999 1.99951C9.0863 2.00169 7.25169 2.76284 5.89855 4.11597C4.54542 5.46911 3.78427 7.30372 3.78209 9.21734C3.78209 11.0598 5.51734 14.4671 8.667 18.8112C8.93439 19.1795 9.28518 19.4792 9.69066 19.6859C10.0961 19.8926 10.5448 20.0004 10.9999 20.0004C11.455 20.0004 11.9037 19.8926 12.3092 19.6859C12.7147 19.4792 13.0655 19.1795 13.3328 18.8112C16.4825 14.4671 18.2178 11.0598 18.2178 9.21734C18.2156 7.30372 17.4544 5.46911 16.1013 4.11597C14.7482 2.76284 12.9135 2.00169 10.9999 1.99951V1.99951Z" fill="#CAC8C8"/>
</g>
<defs>
<clipPath id="clip0_1_49">
<rect width="22" height="22" fill="white"/>
</clipPath>
</defs>
</svg>
