<?xml version="1.0" standalone="no"?>
<!DOCTYPE svg PUBLIC "-//W3C//DTD SVG 20010904//EN"
 "http://www.w3.org/TR/2001/REC-SVG-20010904/DTD/svg10.dtd">
<svg version="1.0" xmlns="http://www.w3.org/2000/svg"
 width="744.000000pt" height="1052.000000pt" viewBox="0 0 744.000000 1052.000000"
 preserveAspectRatio="xMidYMid meet">

<g transform="translate(0.000000,1052.000000) scale(0.100000,-0.100000)"
fill="#000000" stroke="none">
<path d="M3654 7768 c-102 -123 -236 -307 -322 -442 -131 -206 -303 -559 -302
-621 0 -13 52 -69 141 -154 l140 -134 17 24 c9 13 50 76 90 139 77 120 180
260 256 345 l44 50 32 -30 c18 -16 60 -66 95 -110 71 -92 275 -392 275 -406 0
-22 24 -2 136 109 66 65 130 126 144 134 l25 16 -23 68 c-27 78 -115 270 -180
389 -112 205 -465 695 -501 695 -3 0 -34 -33 -67 -72z"/>
<path d="M1402 7083 c-14 -34 -5 -434 12 -568 67 -519 273 -941 636 -1305 l75
-75 6 245 c4 203 19 359 35 378 1 2 81 -50 176 -117 95 -66 174 -117 176 -112
1 4 -7 59 -18 122 -28 158 -36 384 -17 524 9 63 12 116 7 126 -27 49 -357 343
-538 477 -165 123 -494 322 -531 322 -6 0 -15 -8 -19 -17z"/>
<path d="M5887 7035 c-270 -149 -592 -392 -841 -636 -94 -92 -108 -110 -102
-130 3 -13 11 -86 17 -162 13 -157 1 -350 -29 -499 -10 -49 -16 -88 -13 -88 7
0 62 37 219 148 73 52 134 93 136 91 12 -13 30 -216 35 -404 l6 -220 92 93
c314 317 542 809 617 1332 32 225 30 531 -4 538 -8 1 -68 -27 -133 -63z"/>
<path d="M2719 6636 c-54 -123 -114 -395 -123 -561 -7 -131 8 -310 34 -410 26
-101 115 -283 175 -357 25 -32 49 -58 53 -58 5 0 34 84 66 188 71 229 166 488
246 663 l60 132 -27 41 c-77 112 -294 311 -416 381 l-47 27 -21 -46z"/>
<path d="M4656 6660 c-99 -50 -303 -236 -404 -371 l-42 -56 51 -109 c91 -194
182 -442 269 -733 22 -74 43 -137 46 -140 3 -3 29 19 56 49 66 73 129 206 173
365 36 127 37 134 37 315 0 146 -4 209 -20 300 -33 177 -99 401 -120 400 -4
-1 -25 -10 -46 -20z"/>
<path d="M3683 6558 c-122 -131 -273 -356 -373 -561 -115 -232 -186 -472 -211
-710 -24 -230 37 -399 197 -546 82 -75 196 -135 310 -162 81 -19 97 -20 178
-10 166 22 295 82 399 187 115 116 160 236 160 424 0 322 -143 751 -360 1080
-97 146 -243 330 -263 330 -3 0 -20 -15 -37 -32z"/>
<path d="M2266 5449 c-25 -126 16 -387 87 -556 85 -200 268 -403 447 -493 133
-67 306 -94 448 -70 78 13 232 82 232 103 0 7 -33 20 -73 29 -265 64 -441 256
-533 580 l-19 67 -79 26 c-161 52 -280 128 -417 268 -42 42 -79 77 -82 77 -2
0 -7 -14 -11 -31z"/>
<path d="M5120 5431 c-63 -99 -161 -168 -361 -256 -74 -32 -144 -65 -155 -72
-15 -9 -32 -46 -54 -111 -100 -301 -265 -471 -515 -530 -42 -10 -76 -22 -77
-28 -1 -5 31 -25 71 -45 194 -99 383 -93 611 19 106 51 123 64 221 161 155
156 223 272 274 473 39 156 56 438 26 438 -5 0 -23 -22 -41 -49z"/>
<path d="M1167 5360 c-97 -17 -187 -49 -187 -68 0 -25 131 -237 219 -357 191
-259 372 -435 594 -579 155 -101 314 -168 507 -212 153 -35 385 -34 555 1 135
28 185 43 185 54 0 5 -53 27 -117 50 -140 49 -318 141 -445 231 -55 38 -153
124 -239 210 -149 149 -240 265 -339 433 l-52 89 -92 44 c-193 92 -419 132
-589 104z"/>
<path d="M6020 5355 c-92 -18 -215 -59 -340 -114 l-95 -42 -59 -99 c-32 -54
-94 -145 -136 -202 -96 -127 -304 -331 -430 -420 -110 -79 -335 -193 -467
-239 -51 -17 -93 -35 -93 -40 0 -11 47 -23 200 -55 155 -32 367 -36 495 -9
175 36 378 123 585 249 207 126 395 317 599 604 89 127 181 280 181 303 0 14
-19 24 -82 44 -103 33 -248 41 -358 20z"/>
<path d="M1390 4439 c-462 -76 -768 -193 -964 -366 -20 -18 -36 -36 -36 -41 0
-5 78 -34 173 -65 428 -139 640 -185 892 -194 278 -10 486 35 646 139 69 44
174 147 162 159 -4 4 -60 9 -123 11 -205 8 -334 71 -523 257 -65 64 -119 116
-120 117 -1 0 -49 -7 -107 -17z"/>
<path d="M5850 4367 c-103 -109 -179 -167 -285 -218 -95 -46 -197 -69 -305
-69 -43 0 -81 -4 -84 -9 -10 -16 117 -137 189 -179 163 -96 288 -127 515 -126
167 0 255 10 480 55 185 36 690 192 690 212 0 14 -65 70 -140 121 -179 120
-380 191 -755 264 -242 48 -207 54 -305 -51z"/>
<path d="M3580 4314 c-175 -47 -277 -137 -331 -294 -32 -92 -32 -304 -1 -435
51 -206 116 -361 239 -570 80 -134 219 -335 232 -335 14 0 57 59 157 210 166
253 268 481 309 691 22 115 31 343 16 405 -33 132 -118 242 -222 289 -114 51
-290 68 -399 39z"/>
<path d="M3023 4107 c-120 -91 -215 -120 -453 -138 -160 -12 -241 -35 -308
-88 -109 -87 -213 -230 -315 -436 -45 -91 -107 -254 -107 -282 0 -13 15 -14
113 -8 612 37 948 234 1176 691 72 144 77 201 24 264 -46 55 -53 55 -130 -3z"/>
<path d="M4300 4122 c-51 -51 -58 -92 -31 -179 23 -76 90 -198 152 -279 60
-78 206 -214 288 -269 224 -148 465 -224 769 -240 139 -8 133 -12 103 81 -78
236 -216 471 -353 600 -98 93 -168 119 -368 135 -238 18 -320 44 -443 137 -37
29 -71 52 -74 52 -3 0 -22 -17 -43 -38z"/>
</g>
</svg>
