<?xml version="1.0" standalone="no"?>
<!DOCTYPE svg PUBLIC "-//W3C//DTD SVG 20010904//EN"
 "http://www.w3.org/TR/2001/REC-SVG-20010904/DTD/svg10.dtd">
<svg version="1.0" xmlns="http://www.w3.org/2000/svg"
 width="225.000000pt" height="225.000000pt" viewBox="0 0 225.000000 225.000000"
 preserveAspectRatio="xMidYMid meet">

<g transform="translate(0.000000,225.000000) scale(0.100000,-0.100000)"
fill="#000000" stroke="none">
<path d="M1000 2014 c-150 -29 -268 -75 -371 -145 -416 -281 -523 -842 -239
-1253 60 -87 150 -175 239 -235 295 -200 692 -200 990 -1 187 125 313 302 373
522 32 117 33 327 1 443 -88 321 -325 560 -643 646 -73 20 -290 34 -350 23z
m325 -124 c239 -61 444 -244 538 -480 38 -97 51 -173 50 -295 -1 -137 -25
-232 -90 -358 -38 -75 -64 -109 -143 -187 -78 -79 -112 -105 -187 -143 -131
-68 -220 -89 -368 -89 -235 0 -415 78 -578 251 -141 150 -211 327 -211 536 0
209 70 386 211 536 79 83 135 125 228 172 170 85 361 105 550 57z"/>
<path d="M770 1377 c-61 -31 -62 -115 -2 -150 27 -16 37 -17 68 -7 70 23 79
122 13 155 -34 18 -47 18 -79 2z"/>
<path d="M1399 1375 c-63 -35 -54 -132 14 -154 66 -22 127 32 112 100 -12 54
-77 82 -126 54z"/>
<path d="M760 893 c-19 -7 -40 -33 -40 -50 0 -7 9 -22 20 -33 19 -19 33 -20
385 -20 352 0 366 1 385 20 24 24 25 39 6 66 -14 18 -31 19 -378 21 -200 1
-370 -1 -378 -4z"/>
</g>
</svg>
