<svg width="24" height="22" viewBox="0 0 24 22" fill="none" xmlns="http://www.w3.org/2000/svg">
<path d="M23.1628 5.58143H16.4651C16.0075 5.58143 15.6279 5.2019 15.6279 4.74422C15.6279 4.28655 16.0075 3.90701 16.4651 3.90701H23.1628C23.6205 3.90701 24 4.28655 24 4.74422C24 5.2019 23.6205 5.58143 23.1628 5.58143Z" fill="#888888"/>
<path d="M5.30233 5.58143H0.837209C0.379535 5.58143 0 5.2019 0 4.74422C0 4.28655 0.379535 3.90701 0.837209 3.90701H5.30233C5.76 3.90701 6.13953 4.28655 6.13953 4.74422C6.13953 5.2019 5.76 5.58143 5.30233 5.58143Z" fill="#888888"/>
<path d="M9.7675 9.48837C7.15541 9.48837 5.02332 7.35628 5.02332 4.74419C5.02332 2.13209 7.15541 0 9.7675 0C12.3796 0 14.5117 2.13209 14.5117 4.74419C14.5117 7.35628 12.3796 9.48837 9.7675 9.48837ZM9.7675 1.67442C8.07076 1.67442 6.69773 3.04744 6.69773 4.74419C6.69773 6.44093 8.07076 7.81395 9.7675 7.81395C11.4642 7.81395 12.8373 6.44093 12.8373 4.74419C12.8373 3.04744 11.4642 1.67442 9.7675 1.67442Z" fill="#888888"/>
<path d="M23.1628 17.8605H18.6977C18.2401 17.8605 17.8605 17.4809 17.8605 17.0233C17.8605 16.5656 18.2401 16.1861 18.6977 16.1861H23.1628C23.6205 16.1861 24.0001 16.5656 24.0001 17.0233C24.0001 17.4809 23.6205 17.8605 23.1628 17.8605Z" fill="#888888"/>
<path d="M7.53488 17.8605H0.837209C0.379535 17.8605 0 17.4809 0 17.0233C0 16.5656 0.379535 16.1861 0.837209 16.1861H7.53488C7.99256 16.1861 8.37209 16.5656 8.37209 17.0233C8.37209 17.4809 7.99256 17.8605 7.53488 17.8605Z" fill="#888888"/>
<path d="M14.2325 21.7674C11.6204 21.7674 9.48831 19.6353 9.48831 17.0232C9.48831 14.4111 11.6204 12.2791 14.2325 12.2791C16.8446 12.2791 18.9767 14.4111 18.9767 17.0232C18.9767 19.6353 16.8446 21.7674 14.2325 21.7674ZM14.2325 13.9535C12.5358 13.9535 11.1627 15.3265 11.1627 17.0232C11.1627 18.72 12.5358 20.093 14.2325 20.093C15.9292 20.093 17.3023 18.72 17.3023 17.0232C17.3023 15.3265 15.9292 13.9535 14.2325 13.9535Z" fill="#888888"/>
</svg>
