<svg width="12" height="12" viewBox="0 0 12 12" fill="none" xmlns="http://www.w3.org/2000/svg">
<path d="M2.79619 8.51841L2.7962 8.51842L2.79695 8.51505C2.85505 8.25548 2.82633 7.98109 2.76079 7.75102C2.69542 7.52156 2.57518 7.27222 2.38664 7.08313L0.933783 5.62601C0.551893 5.24301 0.523233 4.96289 0.565884 4.82101C0.614239 4.67887 0.796941 4.47084 1.32947 4.37999C1.32971 4.37995 1.32995 4.37991 1.33019 4.37987L3.19393 4.06834L3.19393 4.06837L3.19979 4.06732C3.43984 4.02452 3.66643 3.90731 3.84454 3.77638C4.02252 3.64554 4.20383 3.46298 4.31651 3.24234L4.31654 3.24235L4.3192 3.23701L5.3469 1.16959C5.60603 0.655654 5.86583 0.55 6.00299 0.55C6.14015 0.55 6.39995 0.655655 6.65909 1.1696C6.65929 1.17 6.65949 1.17041 6.6597 1.17081L7.68678 3.23701L7.68707 3.23758C7.82762 3.5195 8.08279 3.73868 8.31308 3.87407L8.38656 3.91727L8.46967 3.9362L8.59183 3.39994L8.46969 3.93621L8.46974 3.93622L8.46992 3.93626L8.4706 3.93641L8.47323 3.93701L8.4834 3.93932L8.52212 3.94811L8.66281 3.97989C8.78075 4.00644 8.94206 4.04257 9.11533 4.08079C9.45612 4.15597 9.86071 4.24319 10.0634 4.27869L10.0634 4.2787L10.0667 4.27926L10.6698 4.38107C10.67 4.38109 10.6701 4.38112 10.6702 4.38114C11.203 4.47197 11.3857 4.68003 11.4341 4.8222C11.4768 4.96408 11.4481 5.2442 11.0662 5.62721L11.0654 5.62802L9.61934 7.08433C9.61926 7.08441 9.61919 7.08448 9.61911 7.08456C9.43051 7.27382 9.30757 7.52081 9.24089 7.75384C9.17472 7.98507 9.14749 8.26017 9.21034 8.522L9.62211 10.3236L9.62244 10.325C9.78121 11.0114 9.62282 11.268 9.53314 11.3368C9.47321 11.3774 9.40227 11.3981 9.33022 11.3962L9.32275 11.396H9.31527C9.14208 11.396 8.88115 11.3286 8.53793 11.1253C8.53776 11.1252 8.53759 11.1251 8.53742 11.125L6.78665 10.0823L6.78666 10.0823L6.78423 10.0808C6.5414 9.93788 6.25619 9.88338 6.00299 9.88338C5.74979 9.88338 5.46458 9.93788 5.22175 10.0808L5.22175 10.0808L5.21933 10.0823L3.47043 11.1239C3.46997 11.1242 3.46951 11.1245 3.46905 11.1247C3.09861 11.3423 2.96081 11.4206 2.84105 11.4445C2.78907 11.4549 2.69716 11.4675 2.43605 11.3127C2.43006 11.3068 2.40269 11.2749 2.37844 11.173C2.34677 11.0399 2.33915 10.8594 2.35307 10.6548C2.36663 10.4557 2.39843 10.2624 2.42781 10.1163C2.44234 10.0441 2.45588 9.98535 2.46555 9.94556C2.47037 9.92571 2.4742 9.91069 2.47667 9.90121L2.47929 9.89126L2.47957 9.89021L2.47963 9.89L2.47967 9.88983L2.47974 9.88961L2.47974 9.88959L2.48267 9.87896L2.48529 9.8676L2.79619 8.51841Z" stroke="#CAC8C8" stroke-width="1.1"/>
</svg>
