<?xml version="1.0" standalone="no"?>
<!DOCTYPE svg PUBLIC "-//W3C//DTD SVG 20010904//EN"
 "http://www.w3.org/TR/2001/REC-SVG-20010904/DTD/svg10.dtd">
<svg version="1.0" xmlns="http://www.w3.org/2000/svg"
 width="259.000000pt" height="194.000000pt" viewBox="0 0 259.000000 194.000000"
 preserveAspectRatio="xMidYMid meet">

<g transform="translate(0.000000,194.000000) scale(0.100000,-0.100000)"
fill="#000000" stroke="none">
<path d="M560 1800 c-119 -22 -224 -85 -292 -175 -60 -79 -81 -143 -86 -268
-11 -264 50 -359 317 -497 231 -118 258 -177 148 -327 -86 -115 -148 -172
-298 -273 -154 -104 -183 -132 -177 -172 3 -21 8 -23 58 -22 137 1 510 215
653 374 224 249 339 668 261 955 -37 137 -121 260 -229 331 -95 63 -247 95
-355 74z"/>
<path d="M1763 1785 c-165 -45 -282 -158 -328 -319 -22 -74 -16 -276 9 -344
41 -111 121 -183 308 -275 115 -56 183 -111 194 -154 26 -101 -123 -284 -357
-441 -167 -111 -204 -153 -167 -190 19 -19 61 -14 150 18 179 65 408 210 533
336 122 124 222 313 276 520 19 74 23 115 24 239 0 167 -16 242 -78 360 -105
198 -351 307 -564 250z"/>
</g>
</svg>
