<svg width="17" height="17" viewBox="0 0 17 17" fill="none" xmlns="http://www.w3.org/2000/svg">
<path d="M2.78366 10.3833C3.07532 10.675 3.24199 11.2583 3.15032 11.6667L2.71699 13.5417C2.71699 13.5417 2.08364 15.8333 3.00032 16.3767C3.91701 16.92 4.30032 16.66 5.22532 16.1183L7.66699 14.6683C8.05032 14.4433 8.68366 14.4433 9.06699 14.6683L11.5087 16.1183C12.0587 16.4433 12.5587 16.6017 12.9837 16.6017C13.2513 16.6089 13.5142 16.5301 13.7337 16.3767C14.2503 16.0017 14.4003 15.2183 14.1587 14.1767L13.5837 11.6683C13.4837 11.26 13.6503 10.685 13.9503 10.385L15.967 8.36C16.6003 7.72667 16.8503 7.05167 16.667 6.46833C16.4753 5.885 15.8837 5.485 15.0003 5.335L14.1587 5.19333C13.6337 5.10167 11.9753 4.725 11.9753 4.725C11.7337 4.58333 11.5087 4.375 11.4003 4.15833L9.96699 1.28333C9.55032 0.458333 8.98366 0 8.36699 0C7.75032 0 7.18366 0.458333 6.76699 1.28333L5.33366 4.15833C5.15866 4.5 4.70032 4.83333 4.32532 4.9L1.72532 5.33333C0.841989 5.48333 0.250322 5.88333 0.0586553 6.46667C-0.124678 7.05 0.125322 7.725 0.758655 8.35833L2.78366 10.3833Z" fill="#3F3F3F"/>
</svg>
