<svg width="19" height="24" viewBox="0 0 19 24" fill="none" xmlns="http://www.w3.org/2000/svg">
<path d="M9.08495 11.1862C6.00145 11.1862 3.49185 8.6766 3.49185 5.5931C3.49185 2.5096 6.00145 0 9.08495 0C12.1685 0 14.6781 2.5096 14.6781 5.5931C14.6781 8.6766 12.1685 11.1862 9.08495 11.1862ZM9.08495 1.45907C6.8088 1.45907 4.95092 3.31695 4.95092 5.5931C4.95092 7.86925 6.8088 9.72713 9.08495 9.72713C11.3611 9.72713 13.219 7.86925 13.219 5.5931C13.219 3.31695 11.3611 1.45907 9.08495 1.45907Z" fill="#848282"/>
<path d="M17.4407 20.9133C17.0419 20.9133 16.7112 20.5826 16.7112 20.1838C16.7112 16.8279 13.2873 14.1043 9.08518 14.1043C4.88301 14.1043 1.45907 16.8279 1.45907 20.1838C1.45907 20.5826 1.12835 20.9133 0.729535 20.9133C0.330723 20.9133 0 20.5826 0 20.1838C0 16.0303 4.07566 12.6453 9.08518 12.6453C14.0947 12.6453 18.1702 16.0303 18.1702 20.1838C18.1702 20.5826 17.8395 20.9133 17.4407 20.9133Z" fill="#848282"/>
<path d="M17.4407 19.2526C17.0419 19.2526 16.7112 19.5834 16.7112 19.9822C16.7112 23.338 11.3879 22.7837 9.08518 22.7837C6.78246 22.7837 1.45907 23.338 1.45907 19.9822C1.45907 19.5834 1.12835 19.2526 0.729535 19.2526C0.330723 19.2526 0 19.5834 0 19.9822C0 24.1357 4.07566 23.9995 9.08518 23.9995C14.0947 23.9995 18.1702 24.1357 18.1702 19.9822C18.1702 19.5834 17.8395 19.2526 17.4407 19.2526Z" fill="#848282"/>
</svg>
