<?xml version="1.0" standalone="no"?>
<!DOCTYPE svg PUBLIC "-//W3C//DTD SVG 20010904//EN"
 "http://www.w3.org/TR/2001/REC-SVG-20010904/DTD/svg10.dtd">
<svg version="1.0" xmlns="http://www.w3.org/2000/svg"
 width="225.000000pt" height="225.000000pt" viewBox="0 0 225.000000 225.000000"
 preserveAspectRatio="xMidYMid meet">

<g transform="translate(0.000000,225.000000) scale(0.100000,-0.100000)"
fill="#000000" stroke="none">
<path d="M910 2180 c-504 -107 -860 -548 -860 -1064 0 -328 164 -656 429 -857
95 -72 267 -154 386 -184 513 -130 1048 133 1258 619 67 155 82 235 81 436 -1
192 -12 255 -73 402 -143 341 -441 584 -804 653 -109 21 -309 19 -417 -5z
m431 -55 c331 -70 619 -312 742 -625 234 -595 -124 -1251 -753 -1382 -78 -16
-121 -19 -235 -15 -157 5 -244 24 -375 81 -227 98 -437 310 -530 533 -62 149
-74 211 -74 403 -1 208 15 283 94 445 152 315 452 531 795 575 86 11 247 4
336 -15z"/>
<path d="M327 1673 c-4 -3 -7 -14 -7 -24 0 -18 21 -27 300 -129 80 -29 149
-56 153 -60 5 -4 -47 -29 -115 -55 -331 -128 -333 -129 -336 -151 -2 -12 3
-24 10 -26 14 -6 545 195 562 212 7 7 7 16 1 26 -9 15 -523 214 -551 214 -6 0
-14 -3 -17 -7z"/>
<path d="M1438 1577 c-159 -59 -269 -106 -273 -115 -3 -9 0 -21 7 -27 7 -7
134 -58 282 -114 243 -93 270 -102 284 -88 12 13 13 19 4 30 -7 8 -110 52
-230 97 -119 46 -220 86 -224 89 -4 4 94 44 217 90 124 47 230 90 236 98 13
15 -5 44 -25 42 -6 -1 -131 -46 -278 -102z"/>
<path d="M280 980 c0 -28 2 -30 40 -30 37 0 40 -2 40 -27 1 -93 72 -269 160
-398 111 -159 242 -254 413 -297 105 -27 265 -21 372 12 240 75 427 256 475
459 15 62 9 228 -10 279 l-12 32 -739 0 -739 0 0 -30z m1102 -400 c71 -22 138
-65 165 -106 17 -26 17 -27 -18 -55 -55 -47 -202 -116 -284 -134 -85 -19 -258
-17 -327 4 l-37 12 19 54 c38 109 114 189 218 227 66 24 183 23 264 -2z"/>
</g>
</svg>
